<?xml version="1.0" encoding="UTF-8" standalone="no"?>
<!DOCTYPE svg PUBLIC "-//W3C//DTD SVG 1.1//EN" "http://www.w3.org/Graphics/SVG/1.1/DTD/svg11.dtd">
<svg width="100%" height="100%" viewBox="0 0 2328 2328" version="1.1" xmlns="http://www.w3.org/2000/svg" xmlns:xlink="http://www.w3.org/1999/xlink" xml:space="preserve" xmlns:serif="http://www.serif.com/" style="fill-rule:evenodd;clip-rule:evenodd;stroke-linecap:round;stroke-linejoin:round;stroke-miterlimit:1.5;">
    <rect id="Page-1" serif:id="Page 1" x="-817.751" y="-1375.19" width="3955.56" height="4483.33" style="fill:none;" />
    <g>
        <g id="Layer-1" serif:id="Layer 1">
            <rect x="0" y="0" width="2327.3" height="2327.3" style="fill:#bfab91;" />
            <g id="Layer1">
                <path d="M1682.87,550.33C1682.87,488.315 1632.52,437.967 1570.5,437.967L671.594,437.967C609.578,437.967 559.23,488.315 559.23,550.33L559.23,1674.57C559.23,1736.58 609.578,1786.93 671.594,1786.93L1570.5,1786.93C1632.52,1786.93 1682.87,1736.58 1682.87,1674.57L1682.87,550.33Z" style="fill:#f2d8b8;" />
                <path d="M694.427,772.71C694.427,772.71 1486.48,772.71 1568.7,772.71" style="fill:#8b2a02;stroke:#8b2a02;stroke-width:88.89px;" />
                <path d="M694.427,1173.79C694.427,1173.79 1486.48,1173.79 1568.7,1173.79" style="fill:#8b2a02;stroke:#8b2a02;stroke-width:88.89px;" />
                <path d="M694.427,1374.34C694.427,1374.34 1478.32,1374.34 1559.69,1374.34" style="fill:#8b2a02;stroke:#8b2a02;stroke-width:88.89px;" />
                <path d="M694.427,1574.88C694.427,1574.88 958.445,1574.88 985.852,1574.88" style="fill:#8b2a02;stroke:#8b2a02;stroke-width:88.89px;" />
                <path d="M694.427,973.252C694.427,973.252 1347.67,973.252 1415.48,973.252" style="fill:#8b2a02;stroke:#8b2a02;stroke-width:88.89px;" />
            </g>
            <g>
                <path d="M1682.87,550.33C1682.87,488.315 1632.52,437.967 1570.5,437.967L671.594,437.967C609.578,437.967 559.23,488.315 559.23,550.33L559.23,1674.57C559.23,1736.58 609.578,1786.93 671.594,1786.93L1570.5,1786.93C1632.52,1786.93 1682.87,1736.58 1682.87,1674.57L1682.87,550.33Z" style="fill:#f2d8b8;" />
                <path d="M694.427,772.71C694.427,772.71 1486.48,772.71 1568.7,772.71" style="fill:#8b2a02;stroke:#8b2a02;stroke-width:88.89px;" />
                <path d="M694.427,1173.79C694.427,1173.79 1486.48,1173.79 1568.7,1173.79" style="fill:#8b2a02;stroke:#8b2a02;stroke-width:88.89px;" />
                <path d="M694.427,1374.34C694.427,1374.34 1478.32,1374.34 1559.69,1374.34" style="fill:#8b2a02;stroke:#8b2a02;stroke-width:88.89px;" />
                <path d="M694.427,1574.88C694.427,1574.88 958.445,1574.88 985.852,1574.88" style="fill:#8b2a02;stroke:#8b2a02;stroke-width:88.89px;" />
                <path d="M694.427,973.252C694.427,973.252 1347.67,973.252 1415.48,973.252" style="fill:#8b2a02;stroke:#8b2a02;stroke-width:88.89px;" />
            </g>
        </g>
    </g>
</svg>
