<?xml version="1.0" encoding="UTF-8" standalone="no"?>
<!DOCTYPE svg PUBLIC "-//W3C//DTD SVG 1.1//EN" "http://www.w3.org/Graphics/SVG/1.1/DTD/svg11.dtd">
<svg width="100%" height="100%" viewBox="0 0 3491 3491" version="1.1" xmlns="http://www.w3.org/2000/svg" xmlns:xlink="http://www.w3.org/1999/xlink" xml:space="preserve" xmlns:serif="http://www.serif.com/" style="fill-rule:evenodd;clip-rule:evenodd;stroke-linecap:round;stroke-linejoin:round;stroke-miterlimit:1.5;">
    <rect id="Page-1" serif:id="Page 1" x="-1226.63" y="-2062.79" width="5933.33" height="6725" style="fill:none;"/>
    <g>
        <g id="Layer-1" serif:id="Layer 1">
            <g id="Layer1">
                <path d="M2524.3,825.496C2524.3,732.473 2448.78,656.95 2355.76,656.95L1007.39,656.95C914.368,656.95 838.845,732.473 838.845,825.496L838.845,2511.85C838.845,2604.88 914.368,2680.4 1007.39,2680.4L2355.76,2680.4C2448.78,2680.4 2524.3,2604.88 2524.3,2511.85L2524.3,825.496Z" style="fill:#f2d8b8;"/>
                <path d="M1041.64,1159.07C1041.64,1159.07 2229.72,1159.07 2353.05,1159.07" style="fill:#8b2a02;stroke:#8b2a02;stroke-width:133.33px;"/>
                <path d="M1041.64,1760.69C1041.64,1760.69 2229.72,1760.69 2353.05,1760.69" style="fill:#8b2a02;stroke:#8b2a02;stroke-width:133.33px;"/>
                <path d="M1041.64,2061.51C1041.64,2061.51 2217.47,2061.51 2339.53,2061.51" style="fill:#8b2a02;stroke:#8b2a02;stroke-width:133.33px;"/>
                <path d="M1041.64,2362.32C1041.64,2362.32 1437.67,2362.32 1478.78,2362.32" style="fill:#8b2a02;stroke:#8b2a02;stroke-width:133.33px;"/>
                <path d="M1041.64,1459.88C1041.64,1459.88 2021.5,1459.88 2123.22,1459.88" style="fill:#8b2a02;stroke:#8b2a02;stroke-width:133.33px;"/>
            </g>
            <g>
                <path d="M2524.3,825.496C2524.3,732.473 2448.78,656.95 2355.76,656.95L1007.39,656.95C914.368,656.95 838.845,732.473 838.845,825.496L838.845,2511.85C838.845,2604.88 914.368,2680.4 1007.39,2680.4L2355.76,2680.4C2448.78,2680.4 2524.3,2604.88 2524.3,2511.85L2524.3,825.496Z" style="fill:#f2d8b8;"/>
                <path d="M1041.64,1159.07C1041.64,1159.07 2229.72,1159.07 2353.05,1159.07" style="fill:#8b2a02;stroke:#8b2a02;stroke-width:133.33px;"/>
                <path d="M1041.64,1760.69C1041.64,1760.69 2229.72,1760.69 2353.05,1760.69" style="fill:#8b2a02;stroke:#8b2a02;stroke-width:133.33px;"/>
                <path d="M1041.64,2061.51C1041.64,2061.51 2217.47,2061.51 2339.53,2061.51" style="fill:#8b2a02;stroke:#8b2a02;stroke-width:133.33px;"/>
                <path d="M1041.64,2362.32C1041.64,2362.32 1437.67,2362.32 1478.78,2362.32" style="fill:#8b2a02;stroke:#8b2a02;stroke-width:133.33px;"/>
                <path d="M1041.64,1459.88C1041.64,1459.88 2021.5,1459.88 2123.22,1459.88" style="fill:#8b2a02;stroke:#8b2a02;stroke-width:133.33px;"/>
            </g>
        </g>
    </g>
</svg>
