<?xml version="1.0" standalone="no"?>
<!DOCTYPE svg PUBLIC "-//W3C//DTD SVG 20010904//EN"
 "http://www.w3.org/TR/2001/REC-SVG-20010904/DTD/svg10.dtd">
<svg version="1.0" xmlns="http://www.w3.org/2000/svg"
 width="700.000000pt" height="700.000000pt" viewBox="0 0 700.000000 700.000000"
 preserveAspectRatio="xMidYMid meet">
<metadata>
Created by potrace 1.14, written by Peter Selinger 2001-2017
</metadata>
<g transform="translate(0.000000,700.000000) scale(0.100000,-0.100000)"
fill="#000000" stroke="none">
<path d="M2023 4790 c-45 -27 -66 -64 -66 -116 0 -53 24 -91 74 -116 32 -17
118 -18 1372 -18 1230 0 1342 1 1374 17 92 43 98 180 10 233 -31 20 -61 20
-1382 20 -1321 0 -1351 -1 -1382 -20z"/>
<path d="M2043 4199 c-35 -10 -77 -58 -86 -100 -10 -38 9 -92 44 -125 l30 -29
1130 -3 c1249 -3 1168 -7 1210 61 27 43 21 117 -12 154 -52 55 1 53 -1186 52
-643 0 -1111 -5 -1130 -10z"/>
<path d="M2020 3583 c-35 -24 -48 -43 -60 -86 -9 -31 -8 -45 9 -81 36 -82 -87
-76 1442 -76 l1361 0 40 40 c39 39 40 42 36 97 -4 49 -9 60 -41 90 l-37 33
-1363 0 c-1267 0 -1364 -1 -1387 -17z"/>
<path d="M2023 2980 c-45 -27 -66 -64 -66 -116 0 -53 24 -91 74 -116 32 -17
117 -18 1357 -18 1450 0 1367 -4 1412 60 45 63 26 149 -43 190 -31 19 -61 20
-1367 20 -1306 0 -1336 -1 -1367 -20z"/>
<path d="M2034 2386 c-87 -38 -104 -153 -33 -222 l30 -29 486 -3 c473 -2 486
-2 518 18 63 39 82 121 42 181 -46 70 -39 69 -552 69 -364 -1 -466 -4 -491
-14z"/>
</g>
</svg>
